<?xml version="1.0" encoding="UTF-8" standalone="no"?>
<!DOCTYPE svg PUBLIC "-//W3C//DTD SVG 1.1//EN"
 "http://www.w3.org/Graphics/SVG/1.1/DTD/svg11.dtd">
<!-- Generated by graphviz version 2.43.0 (0)
 -->
<!-- Title: DAG Pages: 1 -->
<svg width="1620pt" height="611pt"
 viewBox="0.00 0.00 1620.00 611.00" xmlns="http://www.w3.org/2000/svg" xmlns:xlink="http://www.w3.org/1999/xlink">
<g id="graph0" class="graph" transform="scale(1 1) rotate(0) translate(4 607)">
<title>DAG</title>
<polygon fill="white" stroke="transparent" points="-4,4 -4,-607 1616,-607 1616,4 -4,4"/>
<!-- fix.jsonKeyFragment -->
<g id="node1" class="node">
<title>fix.jsonKeyFragment</title>
<path fill="none" stroke="black" d="M569,-360C569,-360 429,-360 429,-360 423,-360 417,-354 417,-348 417,-348 417,-336 417,-336 417,-330 423,-324 429,-324 429,-324 569,-324 569,-324 575,-324 581,-330 581,-336 581,-336 581,-348 581,-348 581,-354 575,-360 569,-360"/>
<text text-anchor="middle" x="499" y="-338.3" font-family="Times,serif" font-size="14.00">fix.jsonKeyFragment</text>
</g>
<!-- get.jsonObjectMetadata -->
<g id="node12" class="node">
<title>get.jsonObjectMetadata</title>
<path fill="none" stroke="black" d="M804,-306C804,-306 640,-306 640,-306 634,-306 628,-300 628,-294 628,-294 628,-282 628,-282 628,-276 634,-270 640,-270 640,-270 804,-270 804,-270 810,-270 816,-276 816,-282 816,-282 816,-294 816,-294 816,-300 810,-306 804,-306"/>
<text text-anchor="middle" x="722" y="-284.3" font-family="Times,serif" font-size="14.00">get.jsonObjectMetadata</text>
</g>
<!-- fix.jsonKeyFragment&#45;&gt;get.jsonObjectMetadata -->
<g id="edge5" class="edge">
<title>fix.jsonKeyFragment&#45;&gt;get.jsonObjectMetadata</title>
<path fill="none" stroke="black" d="M573.9,-323.94C594.26,-318.97 616.5,-313.53 637.37,-308.43"/>
<polygon fill="black" stroke="black" points="638.29,-311.81 647.17,-306.04 636.63,-305.01 638.29,-311.81"/>
</g>
<!-- fix.jsonPrimitives -->
<g id="node2" class="node">
<title>fix.jsonPrimitives</title>
<path fill="none" stroke="black" d="M1248.5,-198C1248.5,-198 1131.5,-198 1131.5,-198 1125.5,-198 1119.5,-192 1119.5,-186 1119.5,-186 1119.5,-174 1119.5,-174 1119.5,-168 1125.5,-162 1131.5,-162 1131.5,-162 1248.5,-162 1248.5,-162 1254.5,-162 1260.5,-168 1260.5,-174 1260.5,-174 1260.5,-186 1260.5,-186 1260.5,-192 1254.5,-198 1248.5,-198"/>
<text text-anchor="middle" x="1190" y="-176.3" font-family="Times,serif" font-size="14.00">fix.jsonPrimitives</text>
</g>
<!-- get.unrolled -->
<g id="node19" class="node">
<title>get.unrolled</title>
<path fill="none" stroke="black" d="M1445.5,-198C1445.5,-198 1365.5,-198 1365.5,-198 1359.5,-198 1353.5,-192 1353.5,-186 1353.5,-186 1353.5,-174 1353.5,-174 1353.5,-168 1359.5,-162 1365.5,-162 1365.5,-162 1445.5,-162 1445.5,-162 1451.5,-162 1457.5,-168 1457.5,-174 1457.5,-174 1457.5,-186 1457.5,-186 1457.5,-192 1451.5,-198 1445.5,-198"/>
<text text-anchor="middle" x="1405.5" y="-176.3" font-family="Times,serif" font-size="14.00">get.unrolled</text>
</g>
<!-- fix.jsonPrimitives&#45;&gt;get.unrolled -->
<g id="edge15" class="edge">
<title>fix.jsonPrimitives&#45;&gt;get.unrolled</title>
<path fill="none" stroke="black" d="M1260.61,-180C1287.25,-180 1317.42,-180 1343.23,-180"/>
<polygon fill="black" stroke="black" points="1343.26,-183.5 1353.26,-180 1343.26,-176.5 1343.26,-183.5"/>
</g>
<!-- fix.jsonSafeGuards -->
<g id="node3" class="node">
<title>fix.jsonSafeGuards</title>
<path fill="none" stroke="black" d="M1016,-36C1016,-36 889,-36 889,-36 883,-36 877,-30 877,-24 877,-24 877,-12 877,-12 877,-6 883,0 889,0 889,0 1016,0 1016,0 1022,0 1028,-6 1028,-12 1028,-12 1028,-24 1028,-24 1028,-30 1022,-36 1016,-36"/>
<text text-anchor="middle" x="952.5" y="-14.3" font-family="Times,serif" font-size="14.00">fix.jsonSafeGuards</text>
</g>
<!-- map.jsonSafeGuards -->
<g id="node15" class="node">
<title>map.jsonSafeGuards</title>
<path fill="none" stroke="black" d="M1260,-36C1260,-36 1120,-36 1120,-36 1114,-36 1108,-30 1108,-24 1108,-24 1108,-12 1108,-12 1108,-6 1114,0 1120,0 1120,0 1260,0 1260,0 1266,0 1272,-6 1272,-12 1272,-12 1272,-24 1272,-24 1272,-30 1266,-36 1260,-36"/>
<text text-anchor="middle" x="1190" y="-14.3" font-family="Times,serif" font-size="14.00">map.jsonSafeGuards</text>
</g>
<!-- fix.jsonSafeGuards&#45;&gt;map.jsonSafeGuards -->
<g id="edge8" class="edge">
<title>fix.jsonSafeGuards&#45;&gt;map.jsonSafeGuards</title>
<path fill="none" stroke="black" d="M1028.01,-18C1050.08,-18 1074.5,-18 1097.51,-18"/>
<polygon fill="black" stroke="black" points="1097.62,-21.5 1107.62,-18 1097.62,-14.5 1097.62,-21.5"/>
</g>
<!-- fix.jsonTuples -->
<g id="node4" class="node">
<title>fix.jsonTuples</title>
<path fill="none" stroke="black" d="M1235.5,-144C1235.5,-144 1144.5,-144 1144.5,-144 1138.5,-144 1132.5,-138 1132.5,-132 1132.5,-132 1132.5,-120 1132.5,-120 1132.5,-114 1138.5,-108 1144.5,-108 1144.5,-108 1235.5,-108 1235.5,-108 1241.5,-108 1247.5,-114 1247.5,-120 1247.5,-120 1247.5,-132 1247.5,-132 1247.5,-138 1241.5,-144 1235.5,-144"/>
<text text-anchor="middle" x="1190" y="-122.3" font-family="Times,serif" font-size="14.00">fix.jsonTuples</text>
</g>
<!-- get.jsonStringMask -->
<g id="node16" class="node">
<title>get.jsonStringMask</title>
<path fill="none" stroke="black" d="M1472,-90C1472,-90 1339,-90 1339,-90 1333,-90 1327,-84 1327,-78 1327,-78 1327,-66 1327,-66 1327,-60 1333,-54 1339,-54 1339,-54 1472,-54 1472,-54 1478,-54 1484,-60 1484,-66 1484,-66 1484,-78 1484,-78 1484,-84 1478,-90 1472,-90"/>
<text text-anchor="middle" x="1405.5" y="-68.3" font-family="Times,serif" font-size="14.00">get.jsonStringMask</text>
</g>
<!-- fix.jsonTuples&#45;&gt;get.jsonStringMask -->
<g id="edge9" class="edge">
<title>fix.jsonTuples&#45;&gt;get.jsonStringMask</title>
<path fill="none" stroke="black" d="M1247.65,-111.67C1270.77,-105.82 1297.95,-98.95 1323.13,-92.58"/>
<polygon fill="black" stroke="black" points="1324.2,-95.92 1333.03,-90.08 1322.48,-89.14 1324.2,-95.92"/>
</g>
<!-- get.characterIndices -->
<g id="node5" class="node">
<title>get.characterIndices</title>
<path fill="none" stroke="black" d="M1022.5,-252C1022.5,-252 882.5,-252 882.5,-252 876.5,-252 870.5,-246 870.5,-240 870.5,-240 870.5,-228 870.5,-228 870.5,-222 876.5,-216 882.5,-216 882.5,-216 1022.5,-216 1022.5,-216 1028.5,-216 1034.5,-222 1034.5,-228 1034.5,-228 1034.5,-240 1034.5,-240 1034.5,-246 1028.5,-252 1022.5,-252"/>
<text text-anchor="middle" x="952.5" y="-230.3" font-family="Times,serif" font-size="14.00">get.characterIndices</text>
</g>
<!-- use.unroller -->
<g id="node18" class="node">
<title>use.unroller</title>
<path fill="none" stroke="black" d="M1229.5,-252C1229.5,-252 1150.5,-252 1150.5,-252 1144.5,-252 1138.5,-246 1138.5,-240 1138.5,-240 1138.5,-228 1138.5,-228 1138.5,-222 1144.5,-216 1150.5,-216 1150.5,-216 1229.5,-216 1229.5,-216 1235.5,-216 1241.5,-222 1241.5,-228 1241.5,-228 1241.5,-240 1241.5,-240 1241.5,-246 1235.5,-252 1229.5,-252"/>
<text text-anchor="middle" x="1190" y="-230.3" font-family="Times,serif" font-size="14.00">use.unroller</text>
</g>
<!-- get.characterIndices&#45;&gt;use.unroller -->
<g id="edge12" class="edge">
<title>get.characterIndices&#45;&gt;use.unroller</title>
<path fill="none" stroke="black" d="M1034.55,-234C1065.24,-234 1099.62,-234 1128.15,-234"/>
<polygon fill="black" stroke="black" points="1128.37,-237.5 1138.37,-234 1128.37,-230.5 1128.37,-237.5"/>
</g>
<!-- get.jsonKeyFragment -->
<g id="node6" class="node">
<title>get.jsonKeyFragment</title>
<path fill="none" stroke="black" d="M347.5,-279C347.5,-279 201.5,-279 201.5,-279 195.5,-279 189.5,-273 189.5,-267 189.5,-267 189.5,-255 189.5,-255 189.5,-249 195.5,-243 201.5,-243 201.5,-243 347.5,-243 347.5,-243 353.5,-243 359.5,-249 359.5,-255 359.5,-255 359.5,-267 359.5,-267 359.5,-273 353.5,-279 347.5,-279"/>
<text text-anchor="middle" x="274.5" y="-257.3" font-family="Times,serif" font-size="14.00">get.jsonKeyFragment</text>
</g>
<!-- cue.jsonObjectInterface -->
<g id="node11" class="node">
<title>cue.jsonObjectInterface</title>
<path fill="none" stroke="black" d="M580,-252C580,-252 418,-252 418,-252 412,-252 406,-246 406,-240 406,-240 406,-228 406,-228 406,-222 412,-216 418,-216 418,-216 580,-216 580,-216 586,-216 592,-222 592,-228 592,-228 592,-240 592,-240 592,-246 586,-252 580,-252"/>
<text text-anchor="middle" x="499" y="-230.3" font-family="Times,serif" font-size="14.00">cue.jsonObjectInterface</text>
</g>
<!-- get.jsonKeyFragment&#45;&gt;cue.jsonObjectInterface -->
<g id="edge2" class="edge">
<title>get.jsonKeyFragment&#45;&gt;cue.jsonObjectInterface</title>
<path fill="none" stroke="black" d="M359.62,-250.79C371.44,-249.36 383.7,-247.87 395.82,-246.4"/>
<polygon fill="black" stroke="black" points="396.45,-249.85 405.95,-245.17 395.6,-242.9 396.45,-249.85"/>
</g>
<!-- get.jsonKeyIndex -->
<g id="node7" class="node">
<title>get.jsonKeyIndex</title>
<path fill="none" stroke="black" d="M557,-306C557,-306 441,-306 441,-306 435,-306 429,-300 429,-294 429,-294 429,-282 429,-282 429,-276 435,-270 441,-270 441,-270 557,-270 557,-270 563,-270 569,-276 569,-282 569,-282 569,-294 569,-294 569,-300 563,-306 557,-306"/>
<text text-anchor="middle" x="499" y="-284.3" font-family="Times,serif" font-size="14.00">get.jsonKeyIndex</text>
</g>
<!-- get.jsonKeyIndex&#45;&gt;get.jsonObjectMetadata -->
<g id="edge6" class="edge">
<title>get.jsonKeyIndex&#45;&gt;get.jsonObjectMetadata</title>
<path fill="none" stroke="black" d="M569.02,-288C584.43,-288 601.11,-288 617.58,-288"/>
<polygon fill="black" stroke="black" points="617.79,-291.5 627.79,-288 617.79,-284.5 617.79,-291.5"/>
</g>
<!-- get.jsonStringFromStruct -->
<g id="node8" class="node">
<title>get.jsonStringFromStruct</title>
<path fill="none" stroke="black" d="M1279,-90C1279,-90 1101,-90 1101,-90 1095,-90 1089,-84 1089,-78 1089,-78 1089,-66 1089,-66 1089,-60 1095,-54 1101,-54 1101,-54 1279,-54 1279,-54 1285,-54 1291,-60 1291,-66 1291,-66 1291,-78 1291,-78 1291,-84 1285,-90 1279,-90"/>
<text text-anchor="middle" x="1190" y="-68.3" font-family="Times,serif" font-size="14.00">get.jsonStringFromStruct</text>
</g>
<!-- get.jsonStringFromStruct&#45;&gt;get.jsonStringMask -->
<g id="edge10" class="edge">
<title>get.jsonStringFromStruct&#45;&gt;get.jsonStringMask</title>
<path fill="none" stroke="black" d="M1291.19,-72C1299.74,-72 1308.34,-72 1316.78,-72"/>
<polygon fill="black" stroke="black" points="1316.98,-75.5 1326.98,-72 1316.98,-68.5 1316.98,-75.5"/>
</g>
<!-- lay.jsonPrimitives -->
<g id="node9" class="node">
<title>lay.jsonPrimitives</title>
<path fill="none" stroke="black" d="M131,-225C131,-225 12,-225 12,-225 6,-225 0,-219 0,-213 0,-213 0,-201 0,-201 0,-195 6,-189 12,-189 12,-189 131,-189 131,-189 137,-189 143,-195 143,-201 143,-201 143,-213 143,-213 143,-219 137,-225 131,-225"/>
<text text-anchor="middle" x="71.5" y="-203.3" font-family="Times,serif" font-size="14.00">lay.jsonPrimitives</text>
</g>
<!-- get.jsonObjectFragment -->
<g id="node10" class="node">
<title>get.jsonObjectFragment</title>
<path fill="none" stroke="black" d="M358,-225C358,-225 191,-225 191,-225 185,-225 179,-219 179,-213 179,-213 179,-201 179,-201 179,-195 185,-189 191,-189 191,-189 358,-189 358,-189 364,-189 370,-195 370,-201 370,-201 370,-213 370,-213 370,-219 364,-225 358,-225"/>
<text text-anchor="middle" x="274.5" y="-203.3" font-family="Times,serif" font-size="14.00">get.jsonObjectFragment</text>
</g>
<!-- lay.jsonPrimitives&#45;&gt;get.jsonObjectFragment -->
<g id="edge1" class="edge">
<title>lay.jsonPrimitives&#45;&gt;get.jsonObjectFragment</title>
<path fill="none" stroke="black" d="M143.08,-207C151.38,-207 159.97,-207 168.6,-207"/>
<polygon fill="black" stroke="black" points="168.74,-210.5 178.74,-207 168.74,-203.5 168.74,-210.5"/>
</g>
<!-- get.jsonObjectFragment&#45;&gt;cue.jsonObjectInterface -->
<g id="edge3" class="edge">
<title>get.jsonObjectFragment&#45;&gt;cue.jsonObjectInterface</title>
<path fill="none" stroke="black" d="M370.18,-218.49C378.68,-219.52 387.32,-220.57 395.88,-221.61"/>
<polygon fill="black" stroke="black" points="395.53,-225.09 405.88,-222.82 396.38,-218.14 395.53,-225.09"/>
</g>
<!-- cue.jsonObjectInterface&#45;&gt;get.jsonObjectMetadata -->
<g id="edge4" class="edge">
<title>cue.jsonObjectInterface&#45;&gt;get.jsonObjectMetadata</title>
<path fill="none" stroke="black" d="M573.9,-252.06C594.26,-257.03 616.5,-262.47 637.37,-267.57"/>
<polygon fill="black" stroke="black" points="636.63,-270.99 647.17,-269.96 638.29,-264.19 636.63,-270.99"/>
</g>
<!-- get.jsonObjectBoundaries -->
<g id="node13" class="node">
<title>get.jsonObjectBoundaries</title>
<path fill="none" stroke="black" d="M1041,-306C1041,-306 864,-306 864,-306 858,-306 852,-300 852,-294 852,-294 852,-282 852,-282 852,-276 858,-270 864,-270 864,-270 1041,-270 1041,-270 1047,-270 1053,-276 1053,-282 1053,-282 1053,-294 1053,-294 1053,-300 1047,-306 1041,-306"/>
<text text-anchor="middle" x="952.5" y="-284.3" font-family="Times,serif" font-size="14.00">get.jsonObjectBoundaries</text>
</g>
<!-- get.jsonObjectMetadata&#45;&gt;get.jsonObjectBoundaries -->
<g id="edge7" class="edge">
<title>get.jsonObjectMetadata&#45;&gt;get.jsonObjectBoundaries</title>
<path fill="none" stroke="black" d="M816.27,-288C824.7,-288 833.28,-288 841.83,-288"/>
<polygon fill="black" stroke="black" points="841.84,-291.5 851.84,-288 841.84,-284.5 841.84,-291.5"/>
</g>
<!-- get.jsonObjectBoundaries&#45;&gt;use.unroller -->
<g id="edge13" class="edge">
<title>get.jsonObjectBoundaries&#45;&gt;use.unroller</title>
<path fill="none" stroke="black" d="M1032.25,-269.94C1063.58,-262.76 1099.08,-254.62 1128.36,-247.91"/>
<polygon fill="black" stroke="black" points="1129.47,-251.24 1138.44,-245.59 1127.91,-244.42 1129.47,-251.24"/>
</g>
<!-- lay.jsonSafeGuards -->
<g id="node14" class="node">
<title>lay.jsonSafeGuards</title>
<path fill="none" stroke="black" d="M1469.5,-144C1469.5,-144 1341.5,-144 1341.5,-144 1335.5,-144 1329.5,-138 1329.5,-132 1329.5,-132 1329.5,-120 1329.5,-120 1329.5,-114 1335.5,-108 1341.5,-108 1341.5,-108 1469.5,-108 1469.5,-108 1475.5,-108 1481.5,-114 1481.5,-120 1481.5,-120 1481.5,-132 1481.5,-132 1481.5,-138 1475.5,-144 1469.5,-144"/>
<text text-anchor="middle" x="1405.5" y="-122.3" font-family="Times,serif" font-size="14.00">lay.jsonSafeGuards</text>
</g>
<!-- use.parser -->
<g id="node27" class="node">
<title>use.parser</title>
<path fill="none" stroke="black" d="M1600,-144C1600,-144 1532,-144 1532,-144 1526,-144 1520,-138 1520,-132 1520,-132 1520,-120 1520,-120 1520,-114 1526,-108 1532,-108 1532,-108 1600,-108 1600,-108 1606,-108 1612,-114 1612,-120 1612,-120 1612,-132 1612,-132 1612,-138 1606,-144 1600,-144"/>
<text text-anchor="middle" x="1566" y="-122.3" font-family="Times,serif" font-size="14.00">use.parser</text>
</g>
<!-- lay.jsonSafeGuards&#45;&gt;use.parser -->
<g id="edge19" class="edge">
<title>lay.jsonSafeGuards&#45;&gt;use.parser</title>
<path fill="none" stroke="black" d="M1481.57,-126C1491.11,-126 1500.72,-126 1509.86,-126"/>
<polygon fill="black" stroke="black" points="1509.95,-129.5 1519.95,-126 1509.95,-122.5 1509.95,-129.5"/>
</g>
<!-- map.jsonSafeGuards&#45;&gt;get.jsonStringMask -->
<g id="edge11" class="edge">
<title>map.jsonSafeGuards&#45;&gt;get.jsonStringMask</title>
<path fill="none" stroke="black" d="M1262.39,-36.06C1281.97,-41.01 1303.35,-46.42 1323.43,-51.5"/>
<polygon fill="black" stroke="black" points="1322.63,-54.9 1333.18,-53.96 1324.34,-48.12 1322.63,-54.9"/>
</g>
<!-- get.jsonStringMask&#45;&gt;use.parser -->
<g id="edge17" class="edge">
<title>get.jsonStringMask&#45;&gt;use.parser</title>
<path fill="none" stroke="black" d="M1459.72,-90.13C1475.88,-95.64 1493.67,-101.7 1509.95,-107.24"/>
<polygon fill="black" stroke="black" points="1509.26,-110.71 1519.86,-110.62 1511.52,-104.08 1509.26,-110.71"/>
</g>
<!-- map.objectContainment -->
<g id="node17" class="node">
<title>map.objectContainment</title>
<path fill="none" stroke="black" d="M1034.5,-198C1034.5,-198 870.5,-198 870.5,-198 864.5,-198 858.5,-192 858.5,-186 858.5,-186 858.5,-174 858.5,-174 858.5,-168 864.5,-162 870.5,-162 870.5,-162 1034.5,-162 1034.5,-162 1040.5,-162 1046.5,-168 1046.5,-174 1046.5,-174 1046.5,-186 1046.5,-186 1046.5,-192 1040.5,-198 1034.5,-198"/>
<text text-anchor="middle" x="952.5" y="-176.3" font-family="Times,serif" font-size="14.00">map.objectContainment</text>
</g>
<!-- map.objectContainment&#45;&gt;use.unroller -->
<g id="edge14" class="edge">
<title>map.objectContainment&#45;&gt;use.unroller</title>
<path fill="none" stroke="black" d="M1032.25,-198.06C1063.58,-205.24 1099.08,-213.38 1128.36,-220.09"/>
<polygon fill="black" stroke="black" points="1127.91,-223.58 1138.44,-222.41 1129.47,-216.76 1127.91,-223.58"/>
</g>
<!-- use.unroller&#45;&gt;get.unrolled -->
<g id="edge16" class="edge">
<title>use.unroller&#45;&gt;get.unrolled</title>
<path fill="none" stroke="black" d="M1241.6,-221.2C1272.1,-213.49 1311.17,-203.61 1343.39,-195.46"/>
<polygon fill="black" stroke="black" points="1344.32,-198.83 1353.16,-192.99 1342.6,-192.05 1344.32,-198.83"/>
</g>
<!-- get.unrolled&#45;&gt;use.parser -->
<g id="edge18" class="edge">
<title>get.unrolled&#45;&gt;use.parser</title>
<path fill="none" stroke="black" d="M1457.52,-162.62C1474.32,-156.9 1493.06,-150.51 1510.13,-144.7"/>
<polygon fill="black" stroke="black" points="1511.62,-147.88 1519.95,-141.35 1509.36,-141.26 1511.62,-147.88"/>
</g>
<!-- cue.meta -->
<g id="node20" class="node">
<title>cue.meta</title>
<path fill="none" stroke="black" d="M100.5,-279C100.5,-279 42.5,-279 42.5,-279 36.5,-279 30.5,-273 30.5,-267 30.5,-267 30.5,-255 30.5,-255 30.5,-249 36.5,-243 42.5,-243 42.5,-243 100.5,-243 100.5,-243 106.5,-243 112.5,-249 112.5,-255 112.5,-255 112.5,-267 112.5,-267 112.5,-273 106.5,-279 100.5,-279"/>
<text text-anchor="middle" x="71.5" y="-257.3" font-family="Times,serif" font-size="14.00">cue.meta</text>
</g>
<!-- def.meta -->
<g id="node21" class="node">
<title>def.meta</title>
<path fill="none" stroke="black" d="M99,-333C99,-333 44,-333 44,-333 38,-333 32,-327 32,-321 32,-321 32,-309 32,-309 32,-303 38,-297 44,-297 44,-297 99,-297 99,-297 105,-297 111,-303 111,-309 111,-309 111,-321 111,-321 111,-327 105,-333 99,-333"/>
<text text-anchor="middle" x="71.5" y="-311.3" font-family="Times,serif" font-size="14.00">def.meta</text>
</g>
<!-- fix.meta -->
<g id="node22" class="node">
<title>fix.meta</title>
<path fill="none" stroke="black" d="M96.5,-387C96.5,-387 46.5,-387 46.5,-387 40.5,-387 34.5,-381 34.5,-375 34.5,-375 34.5,-363 34.5,-363 34.5,-357 40.5,-351 46.5,-351 46.5,-351 96.5,-351 96.5,-351 102.5,-351 108.5,-357 108.5,-363 108.5,-363 108.5,-375 108.5,-375 108.5,-381 102.5,-387 96.5,-387"/>
<text text-anchor="middle" x="71.5" y="-365.3" font-family="Times,serif" font-size="14.00">fix.meta</text>
</g>
<!-- get.meta -->
<g id="node23" class="node">
<title>get.meta</title>
<path fill="none" stroke="black" d="M99.5,-441C99.5,-441 43.5,-441 43.5,-441 37.5,-441 31.5,-435 31.5,-429 31.5,-429 31.5,-417 31.5,-417 31.5,-411 37.5,-405 43.5,-405 43.5,-405 99.5,-405 99.5,-405 105.5,-405 111.5,-411 111.5,-417 111.5,-417 111.5,-429 111.5,-429 111.5,-435 105.5,-441 99.5,-441"/>
<text text-anchor="middle" x="71.5" y="-419.3" font-family="Times,serif" font-size="14.00">get.meta</text>
</g>
<!-- lay.meta -->
<g id="node24" class="node">
<title>lay.meta</title>
<path fill="none" stroke="black" d="M97.5,-495C97.5,-495 45.5,-495 45.5,-495 39.5,-495 33.5,-489 33.5,-483 33.5,-483 33.5,-471 33.5,-471 33.5,-465 39.5,-459 45.5,-459 45.5,-459 97.5,-459 97.5,-459 103.5,-459 109.5,-465 109.5,-471 109.5,-471 109.5,-483 109.5,-483 109.5,-489 103.5,-495 97.5,-495"/>
<text text-anchor="middle" x="71.5" y="-473.3" font-family="Times,serif" font-size="14.00">lay.meta</text>
</g>
<!-- map.meta -->
<g id="node25" class="node">
<title>map.meta</title>
<path fill="none" stroke="black" d="M103.5,-549C103.5,-549 39.5,-549 39.5,-549 33.5,-549 27.5,-543 27.5,-537 27.5,-537 27.5,-525 27.5,-525 27.5,-519 33.5,-513 39.5,-513 39.5,-513 103.5,-513 103.5,-513 109.5,-513 115.5,-519 115.5,-525 115.5,-525 115.5,-537 115.5,-537 115.5,-543 109.5,-549 103.5,-549"/>
<text text-anchor="middle" x="71.5" y="-527.3" font-family="Times,serif" font-size="14.00">map.meta</text>
</g>
<!-- use.meta -->
<g id="node26" class="node">
<title>use.meta</title>
<path fill="none" stroke="black" d="M100.5,-603C100.5,-603 42.5,-603 42.5,-603 36.5,-603 30.5,-597 30.5,-591 30.5,-591 30.5,-579 30.5,-579 30.5,-573 36.5,-567 42.5,-567 42.5,-567 100.5,-567 100.5,-567 106.5,-567 112.5,-573 112.5,-579 112.5,-579 112.5,-591 112.5,-591 112.5,-597 106.5,-603 100.5,-603"/>
<text text-anchor="middle" x="71.5" y="-581.3" font-family="Times,serif" font-size="14.00">use.meta</text>
</g>
</g>
</svg>
